<svg xmlns="http://www.w3.org/2000/svg" width="40" height="40" fill="none"><path fill="#3370FF" d="M6.666 1.666A3.333 3.333 0 0 0 3.332 5v28.334a3.333 3.333 0 0 0 3.334 3.333h26.666V5A3.333 3.333 0 0 0 30 1.666H6.666z"/><path fill="#fff" d="M9.999 11.666c0-.92.746-1.667 1.666-1.667h9.667a1.667 1.667 0 1 1 0 3.334h-9.667c-.92 0-1.666-.747-1.666-1.667zm1.666 5.001a1.667 1.667 0 0 0 0 3.333h3a1.667 1.667 0 1 0 0-3.333h-3z"/><path fill="#9AB8FC" d="M33.114 36.91h1.545c2.884 0 5.221-2.356 5.221-5.263 0-2.74-2.125-4.99-4.737-5.24-.342-3.776-3.191-6.722-7.065-6.722-3.183 0-6.03 1.989-7.171 4.793a6.22 6.22 0 0 0 .43 12.432v.002h11.777v-.002z"/></svg>