<svg xmlns="http://www.w3.org/2000/svg" width="40" height="40" fill="none"><path fill="#3370FF" d="M4.167 4.167c0-.92.746-1.667 1.666-1.667H27.5a8.333 8.333 0 0 1 8.333 8.333v25c0 .92-.746 1.667-1.666 1.667H12.725c-2.27 0-4.446-.868-6.051-2.412-1.605-1.544-2.507-3.994-2.507-6.178V4.167z"/><path fill="#14C0FF" d="M4.167 11.665h17.5A5.833 5.833 0 0 1 27.5 17.5v20h-15c-4.602 0-8.333-3.843-8.333-8.445v-17.39z"/><path fill="#93E55E" d="M4.167 20.835h11.666a3.333 3.333 0 0 1 3.334 3.333v13.334H12.5a8.333 8.333 0 0 1-8.333-8.334v-8.333z"/></svg>