<svg xmlns="http://www.w3.org/2000/svg" width="40" height="40" fill="none"><g clip-path="url(#a)"><path fill="#F80" d="M3.332 10h33.334v23.333a3.333 3.333 0 0 1-3.334 3.334H6.666a3.333 3.333 0 0 1-3.334-3.334V10z"/><path fill="#fff" d="M26.054 21.829a6.7 6.7 0 0 1 .549.001c.46.015.872.096 1.23.249a3.271 3.271 0 0 1 1.536 1.318c.151.247.278.508.379.78.15.403.234.827.25 1.257v.515c0 .12-.003.241-.006.364a5.959 5.959 0 0 1-.017.352 10.92 10.92 0 0 1-.061.345c-.038.2-.103.43-.196.69a5.24 5.24 0 0 1-.403.848c-.183.313-.42.607-.71.882a4.117 4.117 0 0 1-1.065.713c-.425.202-.922.325-1.486.37-.592.052-1.122.012-1.592-.122a3.835 3.835 0 0 1-1.213-.573 3.665 3.665 0 0 1-.858-.864 4.523 4.523 0 0 1-.783-1.95 3.254 3.254 0 0 1-.023-.824c.036-.3.076-.569.12-.807.081-.456.2-.904.357-1.34.073-.208.16-.434.257-.678.028-.072.096-.218.208-.451l.322-.67.002-.004v-.002l.002-.001.072-.152c.16-.33.338-.693.535-1.088a1000.54 1000.54 0 0 1 2.157-4.36l.116-.23h2.37c.477.362.477.362.412.487-.012.056-.012.056-.02.079-.008.02-.01.029-.015.038l-.012.03-.075.158c-.207.431-.418.86-.633 1.288l-.452.904c-.315.632-.635 1.26-.96 1.886l-.294.562zm-.22 6.005c.829 0 1.5-.784 1.5-1.75 0-.967-.671-1.75-1.5-1.75-.828 0-1.5.783-1.5 1.75 0 .966.672 1.75 1.5 1.75zm-11.092-.122h4.538v2.704h-8.273V28.09l.09-.115 5.09-6.366c.17-.222.28-.42.327-.555.04-.18.061-.346.061-.499a1.51 1.51 0 0 0-.355-1.006c-.234-.271-.57-.411-1.028-.421-.407 0-.73.124-.996.38-.274.256-.44.626-.496 1.13l-.041.37h-2.67l.018-.435c.053-1.184.455-2.18 1.213-2.97.764-.77 1.713-1.166 2.834-1.18 1.227.014 2.243.413 3.017 1.195.791.777 1.195 1.768 1.209 2.955a4.026 4.026 0 0 1-.88 2.552l-3.658 4.587z"/><path fill="#FFC60A" d="M3.332 6.666a3.333 3.333 0 0 1 3.334-3.333h26.666a3.333 3.333 0 0 1 3.334 3.333V10H3.332V6.666z"/></g><defs><clipPath id="a"><path fill="#fff" d="M0 0h40v40H0z"/></clipPath></defs></svg>