<svg xmlns="http://www.w3.org/2000/svg" width="40" height="40" fill="none"><path fill="#427BFF" fill-rule="evenodd" d="M17.543 33.333c8.54 0 15.464-6.923 15.464-15.463S26.083 2.405 17.543 2.405 2.08 9.329 2.08 17.869c0 .215.004.428.013.64a15.36 15.36 0 0 0 4.203 9.998l-1.51 2.223c-.751 1.106.041 2.603 1.379 2.603h10.594v-.018a15.605 15.605 0 0 0 .784.018z" clip-rule="evenodd"/><g filter="url(#a)"><path fill="#45CAFF" fill-rule="evenodd" d="M37.154 32.386a9.987 9.987 0 0 0 2.415-6.526c0-5.538-4.49-10.026-10.026-10.026-5.538 0-10.026 4.488-10.026 10.026 0 5.537 4.488 10.026 10.026 10.026.212 0 .423-.007.633-.02v.02h6.218c1.343 0 2.134-1.508 1.372-2.614l-.612-.886z" clip-rule="evenodd"/></g><defs><filter id="a" width="31.495" height="31.495" x="13.795" y="10.112" color-interpolation-filters="sRGB" filterUnits="userSpaceOnUse"><feFlood flood-opacity="0" result="BackgroundImageFix"/><feGaussianBlur in="BackgroundImageFix" stdDeviation="2.861"/><feComposite in2="SourceAlpha" operator="in" result="effect1_backgroundBlur_161_2317"/><feBlend in="SourceGraphic" in2="effect1_backgroundBlur_161_2317" result="shape"/></filter></defs></svg>