<svg xmlns="http://www.w3.org/2000/svg" width="40" height="40" fill="none"><path fill="#427BFF" d="M2.954 27.085a1.785 1.785 0 0 1 2.419-.725L20 34.236l14.627-7.876a1.785 1.785 0 1 1 1.693 3.144l-15.248 8.21c-.67.36-1.475.36-2.144 0L3.68 29.504a1.785 1.785 0 0 1-.726-2.419zM20.896 2.224a1.904 1.904 0 0 0-1.792 0L3.63 10.477a.952.952 0 0 0-.042 1.656l15.432 9.26a1.904 1.904 0 0 0 1.96 0l15.432-9.26a.952.952 0 0 0-.042-1.656L20.896 2.224z"/><path fill="#45CAFF" d="M2.98 18.73a1.785 1.785 0 0 1 2.439-.654L20 26.49l14.581-8.413a1.785 1.785 0 1 1 1.785 3.093L21.13 29.96c-.7.404-1.56.404-2.26 0L3.634 21.17a1.785 1.785 0 0 1-.654-2.438z"/></svg>