<svg xmlns="http://www.w3.org/2000/svg" width="40" height="40" fill="none"><g clip-path="url(#a)"><path fill="#9B64FA" d="M5 3.62C5 2.724 5.73 2 6.632 2h20.99c2.222 0 4.353.843 5.924 2.343C35.117 5.843 36 7.878 36 10v24.381c0 .894-.73 1.62-1.632 1.62h-20.99c-2.222 0-4.353-.844-5.924-2.344C5.883 32.157 5 30.122 5 28V3.62z"/><path fill="#fff" d="M11.934 12.685c0-.626.511-1.133 1.142-1.133h2.61c.632 0 1.143.507 1.143 1.133s-.511 1.133-1.142 1.133h-2.61a1.137 1.137 0 0 1-1.143-1.133zm0 6.315c0-.627.511-1.134 1.142-1.134h2.61c.632 0 1.143.507 1.143 1.133s-.511 1.133-1.142 1.133h-2.61a1.137 1.137 0 0 1-1.143-1.133zm0 6.313c0-.625.511-1.133 1.142-1.133h2.61c.632 0 1.143.508 1.143 1.133 0 .626-.511 1.134-1.142 1.134h-2.61a1.138 1.138 0 0 1-1.143-1.134zM28.03 11.552h-6.902c-.572 0-1.036.507-1.036 1.133s.464 1.133 1.036 1.133h6.902c.572 0 1.036-.507 1.036-1.133s-.464-1.133-1.036-1.133zm0 6.314h-6.902c-.572 0-1.036.507-1.036 1.133s.464 1.133 1.036 1.133h6.902c.572 0 1.036-.507 1.036-1.133s-.464-1.133-1.036-1.133zm0 6.314h-6.902c-.572 0-1.036.508-1.036 1.133 0 .626.464 1.134 1.036 1.134h6.902c.572 0 1.036-.508 1.036-1.134 0-.625-.464-1.133-1.036-1.133z"/></g><defs><clipPath id="a"><path fill="#fff" d="M0 0h40v40H0z"/></clipPath></defs></svg>